<svg version="1.1" id="Layer_1" xmlns="http://www.w3.org/2000/svg" xmlns:xlink="http://www.w3.org/1999/xlink" x="0px" y="0px"
	 width="100%" viewBox="0 0 1024 768" enable-background="new 0 0 1024 768" xml:space="preserve">
<path fill="#000000" opacity="1.000000" stroke="none" 
	d="
M547.267578,458.130737 
	C548.571655,453.886505 548.752014,449.925018 548.738464,445.906128 
	C548.676575,427.587402 548.655029,409.268188 548.722473,390.949524 
	C548.752014,382.911255 547.233093,375.398468 542.223389,368.881897 
	C540.688538,366.885345 539.997925,364.579559 541.167480,362.361206 
	C542.281433,360.248169 544.701843,360.984161 546.621948,360.892639 
	C548.948486,360.781799 551.289307,360.955414 553.614197,360.828247 
	C559.689270,360.495941 564.835388,362.001495 567.736084,367.829987 
	C589.805786,357.789856 610.961670,360.784637 623.557922,375.577942 
	C634.630371,388.581665 635.741333,409.912994 626.084229,424.082703 
	C615.172791,440.092621 594.476257,444.292664 568.025452,435.664276 
	C567.090210,447.118805 566.436096,458.326019 574.279663,467.990601 
	C575.588623,469.603394 576.547546,471.440796 575.700684,473.514618 
	C574.697449,475.971497 572.338989,475.236237 570.450806,475.250977 
	C562.291077,475.314789 554.130188,475.315094 545.970581,475.237976 
	C544.243896,475.221680 542.019653,475.883942 541.080200,473.756866 
	C540.146606,471.643127 540.723389,469.542542 542.111328,467.661346 
	C544.193176,464.839600 546.085815,461.902893 547.267578,458.130737 
M569.244446,377.838623 
	C565.291870,385.028076 564.608154,392.643463 566.329773,400.554626 
	C569.029968,412.963287 573.973938,424.062195 585.343384,430.965424 
	C595.225647,436.965637 606.157166,433.646545 611.709045,423.546936 
	C615.285217,417.041412 615.598511,410.042450 614.652649,403.123871 
	C612.697754,388.824982 606.315735,377.137146 592.525879,370.912109 
	C583.676208,366.917175 575.272217,369.428528 569.244446,377.838623 
z"/>
<path fill="#000000" opacity="1.000000" stroke="none" 
	d="
M349.151489,424.000000 
	C349.156494,437.994720 349.193848,451.489502 349.151550,464.984100 
	C349.131805,471.281586 348.177521,472.227234 341.857635,472.229279 
	C281.547913,472.248932 221.238205,472.248871 160.928497,472.238068 
	C154.863556,472.236969 153.923233,471.335846 153.916733,465.345764 
	C153.883316,434.524567 153.875595,403.703308 153.897125,372.882080 
	C153.901627,366.435333 154.674088,365.698486 161.092789,365.697510 
	C221.402512,365.688629 281.712219,365.689758 342.021942,365.703644 
	C348.291321,365.705078 349.119507,366.519836 349.137329,373.020294 
	C349.183472,389.846741 349.151794,406.673431 349.151489,424.000000 
M266.500000,371.935242 
	C233.012268,371.918304 199.523666,372.013397 166.037766,371.757507 
	C161.285461,371.721191 160.155685,373.079803 160.184067,377.588318 
	C160.355164,404.744080 160.255554,431.901489 160.255920,459.058350 
	C160.256012,465.883759 160.271790,465.879944 167.186188,465.879852 
	C222.666138,465.878998 278.146088,465.879913 333.626038,465.879059 
	C335.292053,465.879059 336.962219,465.787964 338.623169,465.876099 
	C341.627289,466.035553 342.723450,464.666290 342.717712,461.696899 
	C342.662628,433.207336 342.649292,404.717407 342.746948,376.228058 
	C342.759125,372.668091 341.137756,371.385132 337.947296,371.480377 
	C333.955566,371.599548 329.967499,371.987061 325.977478,371.992981 
	C306.485077,372.021820 286.992493,371.962097 266.500000,371.935242 
z"/>
<path fill="#000000" opacity="1.000000" stroke="none" 
	d="
M464.300110,370.255188 
	C490.393494,349.930817 525.688049,361.655548 532.673889,392.640717 
	C534.366150,400.146667 533.716736,400.986969 525.922485,400.999390 
	C509.271332,401.025940 492.620056,401.001373 475.968933,401.026703 
	C473.673096,401.030182 471.327759,400.772369 469.153046,401.610962 
	C468.462189,415.019501 482.782745,433.830719 495.496948,436.430145 
	C501.895996,437.738434 509.080078,434.703339 512.779053,428.917419 
	C514.114502,426.828552 515.235657,424.552887 516.120911,422.235016 
	C519.287292,413.944458 520.591675,413.245239 529.926636,415.370087 
	C529.551270,424.462982 515.316284,438.495361 500.012085,441.222015 
	C481.774170,444.471313 463.534882,436.037750 455.323761,420.201782 
	C446.393555,402.978912 449.609833,384.628998 464.300110,370.255188 
M489.026703,367.271332 
	C476.549988,366.298340 467.960419,374.092010 467.128906,386.842957 
	C466.844666,391.201630 467.946564,393.192780 472.802643,393.085541 
	C485.085846,392.814301 497.379333,393.021423 509.668518,392.987732 
	C511.250000,392.983398 513.037292,393.458801 514.226257,391.849792 
	C512.025818,380.871582 501.853149,370.655334 489.026703,367.271332 
z"/>
<path fill="#000000" opacity="1.000000" stroke="none" 
	d="
M725.448120,435.714233 
	C714.350220,427.025787 710.284668,415.819336 713.677368,403.893494 
	C717.023132,392.132294 726.511719,384.561951 739.653015,383.159271 
	C745.612305,382.523193 751.049683,384.823273 757.015747,386.559357 
	C757.268799,381.551941 756.960510,376.992493 755.377930,372.630310 
	C753.029358,366.156555 745.623901,364.220490 740.331421,368.639282 
	C738.936340,369.804108 737.284119,371.049011 736.609863,372.625031 
	C732.801453,381.526642 725.611084,379.800446 717.717957,378.806702 
	C719.675171,372.315765 723.453064,367.639862 728.623962,364.241913 
	C744.879883,353.559570 771.957458,364.896454 775.856201,383.920868 
	C776.252747,385.855865 776.300842,387.886780 776.305481,389.873657 
	C776.339905,404.525208 776.335754,419.176910 776.304688,433.828461 
	C776.300537,435.774170 776.662781,437.811859 775.251831,440.093964 
	C769.033325,438.510193 762.641724,437.405029 756.145874,438.277740 
	C752.039978,438.829376 747.987305,439.833954 743.871765,440.244141 
	C737.387207,440.890350 731.313904,439.365845 725.448120,435.714233 
M732.121826,426.345764 
	C733.013489,427.329193 733.842896,428.378784 734.806519,429.285797 
	C743.928284,437.872040 755.488647,434.402832 758.351929,422.237549 
	C760.715820,412.194336 755.765198,398.987640 747.226807,393.077911 
	C742.987366,390.143555 738.353638,388.361969 733.205261,390.761658 
	C727.959045,393.206970 725.886230,397.863739 725.401001,403.227509 
	C724.654419,411.480408 727.001343,418.980743 732.121826,426.345764 
z"/>
<path fill="#000000" opacity="1.000000" stroke="none" 
	d="
M864.168457,370.843811 
	C866.935608,374.183990 869.426758,377.281738 870.810486,381.088684 
	C863.713440,384.405182 853.529480,382.460144 848.855164,377.045013 
	C844.943787,372.513580 840.151306,369.187500 834.415344,367.607635 
	C823.480103,364.595642 813.999023,370.390533 810.671509,381.806183 
	C805.693115,398.885651 814.909668,423.471344 829.872559,433.025848 
	C840.784546,439.993622 852.237793,436.752441 857.806885,425.120697 
	C861.168213,418.100037 862.072876,417.699066 870.526978,419.482239 
	C871.413330,420.681427 870.769226,421.710327 870.097046,422.665985 
	C861.136658,435.405243 848.973145,442.737366 833.293335,441.940735 
	C814.367798,440.979248 798.825623,433.288269 791.681824,414.550598 
	C782.431213,390.287384 797.954285,364.978363 823.905457,360.775726 
	C838.649780,358.387970 852.532837,359.357788 864.168457,370.843811 
z"/>
<path fill="#000000" opacity="1.000000" stroke="none" 
	d="
M666.477783,360.865906 
	C675.572449,360.039978 683.777649,361.734009 691.735840,365.089386 
	C696.475952,367.087952 694.164001,371.005829 694.417969,374.195923 
	C694.544617,375.786957 694.677917,377.652832 692.360657,378.124664 
	C689.381653,378.731293 687.242371,377.483429 685.414917,375.247620 
	C684.260010,373.834473 683.002197,372.473694 681.626587,371.278015 
	C676.113098,366.485626 669.988464,365.123840 663.142334,368.220856 
	C660.172119,369.564423 657.372559,371.207184 656.852844,374.737671 
	C656.326477,378.313110 659.031067,380.231903 661.552612,381.777161 
	C670.064331,386.993286 678.778137,391.880371 687.273071,397.122650 
	C694.547729,401.611877 700.367615,407.444946 702.322266,416.173401 
	C704.321228,425.099426 700.820557,432.670410 692.874573,437.230621 
	C683.853333,442.407898 674.195374,441.302795 664.626587,439.913757 
	C658.724060,439.056915 652.862793,437.620880 647.325806,435.259521 
	C644.082520,433.876404 641.877258,425.192688 644.278076,422.684204 
	C646.091675,420.789215 648.629211,421.248077 650.660828,422.609436 
	C652.009155,423.512909 653.160950,424.830231 654.130249,426.159515 
	C661.202271,435.857727 674.755310,435.237183 682.807190,431.955719 
	C688.192871,429.760834 689.216797,426.091125 685.952515,421.223358 
	C682.930481,416.716888 678.591614,413.536896 674.137573,410.613037 
	C667.466431,406.233765 660.514709,402.272644 653.940002,397.758514 
	C647.872070,393.592377 642.677917,388.505646 643.821228,380.185181 
	C645.013245,371.510040 650.745911,366.461975 658.426880,363.317596 
	C660.877258,362.314453 663.492981,361.715332 666.477783,360.865906 
z"/>
<path fill="#000000" opacity="1.000000" stroke="none" 
	d="
M432.013397,373.747375 
	C428.804535,373.508698 425.954163,373.098053 423.174805,373.382141 
	C417.755920,373.936005 413.843719,377.442871 413.677185,382.674011 
	C413.322845,393.806366 412.987915,404.959473 413.814270,416.097107 
	C414.295227,422.579193 416.502167,428.404297 420.360413,433.618286 
	C421.472351,435.120972 422.553772,436.706116 421.739105,438.651184 
	C420.808167,440.873810 418.680237,440.292358 416.937408,440.303131 
	C408.447174,440.355530 399.956055,440.376831 391.466003,440.310333 
	C386.587769,440.272125 385.032837,437.995361 387.867096,434.262848 
	C393.902283,426.314880 395.183746,417.406921 394.779053,407.844849 
	C394.504761,401.363586 394.679382,394.861084 394.734802,388.368774 
	C394.794922,381.326569 393.051147,374.860535 388.748627,369.213623 
	C387.266663,367.268555 386.000824,365.182068 386.986359,362.803955 
	C388.152191,359.990540 390.967346,360.974426 393.156555,360.897858 
	C397.313751,360.752502 401.481781,360.934570 405.640564,360.814667 
	C410.099152,360.686157 414.727478,360.103455 413.926697,367.300537 
	C418.807220,365.950592 422.242920,363.183411 426.390778,362.029022 
	C432.185883,360.416229 437.837799,360.129456 443.534119,362.218536 
	C445.176605,362.820862 446.781616,363.517975 446.289795,365.689636 
	C445.347870,369.848450 444.967865,374.191467 442.671875,378.109009 
	C439.119354,376.649078 435.761658,375.269226 432.013397,373.747375 
z"/>
<path fill="#000000" opacity="1.000000" stroke="none" 
	d="
M277.681274,399.088379 
	C275.907623,399.688843 274.508362,400.212097 273.109924,400.737518 
	C271.382355,401.386627 269.750366,401.419189 268.834442,399.523224 
	C267.905914,397.601166 269.041534,396.294128 270.578217,395.402039 
	C275.945435,392.286316 281.554962,391.848053 287.400482,393.982697 
	C288.901947,394.530975 290.344574,395.559296 292.131561,395.064972 
	C293.177124,392.953033 291.462891,392.356781 290.237457,391.729034 
	C284.990082,389.040924 279.578033,387.929169 273.903778,390.448822 
	C271.949097,391.316742 269.856171,391.946228 268.857330,389.369507 
	C267.927032,386.969574 269.730133,385.653290 271.613922,384.758759 
	C276.134674,382.612030 280.815796,381.964172 285.688660,383.526337 
	C287.714325,384.175690 289.771820,384.725555 291.672394,385.279175 
	C292.124207,384.788757 292.517181,384.564636 292.535522,384.313171 
	C293.306091,373.751862 294.817413,375.802765 302.576935,375.697021 
	C310.907318,375.583466 319.244049,375.823700 327.571014,375.621094 
	C332.020874,375.512787 334.108978,377.316559 334.105835,381.711670 
	C334.099976,389.876770 334.113464,398.041870 334.129852,406.206970 
	C334.136871,409.709045 332.484436,411.346344 328.909485,411.322205 
	C318.578430,411.252350 308.246521,411.286591 297.915039,411.313751 
	C295.452484,411.320221 293.238586,410.424561 293.193024,407.896759 
	C293.060913,400.572937 287.291016,400.460663 282.500336,399.130493 
	C281.114807,398.745728 279.542694,399.032990 277.681274,399.088379 
M303.140015,393.811646 
	C301.781616,394.584473 299.069763,393.848907 299.687225,396.876740 
	C301.445068,398.373016 302.814331,396.879303 304.238403,396.288666 
	C305.762054,395.656647 307.172180,395.444366 308.238068,396.940918 
	C309.453552,398.647522 308.641296,400.046936 307.369537,401.333191 
	C305.691986,403.029968 303.408020,403.689911 300.066559,405.056732 
	C308.731049,405.056732 316.033295,404.997528 323.333771,405.084351 
	C326.492157,405.121918 327.839661,403.843658 327.740051,400.628540 
	C327.596191,395.984650 327.574219,391.326538 327.771362,386.686035 
	C327.917267,383.251678 326.553284,381.882538 323.149719,381.923950 
	C316.845032,382.000641 310.537354,381.890991 304.231812,381.798187 
	C302.470642,381.772247 300.405396,380.848969 299.537231,383.228424 
	C299.096985,384.434937 298.876190,386.021820 299.946777,387.001465 
	C301.583313,388.498932 302.995361,386.934265 304.430359,386.269958 
	C305.951294,385.565979 307.366119,385.539185 308.349518,387.100525 
	C309.317017,388.636627 308.717072,390.078461 307.544861,391.119537 
	C306.454926,392.087646 305.084381,392.739868 303.140015,393.811646 
z"/>
<path fill="#000000" opacity="1.000000" stroke="none" 
	d="
M241.532257,444.368835 
	C244.779221,448.870422 248.994980,450.574280 253.935822,449.513947 
	C259.109528,448.403656 262.199890,444.983215 263.095764,439.603943 
	C263.451416,437.468231 264.182800,435.056702 267.184540,435.794403 
	C269.855560,436.450775 269.361328,438.857605 269.161194,440.758026 
	C268.292267,449.010925 260.084351,456.065308 251.509094,456.058075 
	C243.022446,456.050873 234.925125,449.404510 233.847626,441.359680 
	C233.556824,439.188385 232.810638,436.276703 236.078003,435.649719 
	C239.198639,435.050964 239.118591,437.914978 239.760239,439.881836 
	C240.220840,441.293610 240.806000,442.664734 241.532257,444.368835 
z"/>
<path fill="#000000" opacity="1.000000" stroke="none" 
	d="
M221.102173,421.698883 
	C221.026474,421.141510 220.992844,420.972076 221.013672,420.809692 
	C221.447784,417.427429 222.014191,413.930237 225.971100,413.022064 
	C228.636673,412.410309 230.298996,414.319397 231.238419,416.645325 
	C232.793289,420.495087 232.671143,424.254425 229.550247,427.262939 
	C226.353256,430.344757 223.094849,428.275665 221.102173,421.698883 
z"/>
<path fill="#000000" opacity="1.000000" stroke="none" 
	d="
M278.275635,413.500092 
	C282.404083,417.085266 282.425781,421.194305 280.698303,425.495392 
	C279.989136,427.261047 278.525330,428.406158 276.453979,428.449097 
	C274.393860,428.491791 272.972778,427.439453 272.073822,425.706451 
	C270.349640,422.382538 270.272827,418.967072 272.150360,415.714661 
	C273.392731,413.562531 275.207062,412.176392 278.275635,413.500092 
z"/>
</svg>