<svg version="1.1" id="Layer_1" xmlns="http://www.w3.org/2000/svg" xmlns:xlink="http://www.w3.org/1999/xlink" x="0px" y="0px"
	 width="100%" viewBox="0 0 1024 768" enable-background="new 0 0 1024 768" xml:space="preserve">
  <!-- Transformering for å sentrere og forstørre -->
  <g transform="translate(-740, -1700) scale(5)">
    <path fill="#000000" opacity="1.000000" stroke="none" 
      d="
    M349.151489,424.000000 
      C349.156494,437.994720 349.193848,451.489502 349.151550,464.984100 
      C349.131805,471.281586 348.177521,472.227234 341.857635,472.229279 
      C281.547913,472.248932 221.238205,472.248871 160.928497,472.238068 
      C154.863556,472.236969 153.923233,471.335846 153.916733,465.345764 
      C153.883316,434.524567 153.875595,403.703308 153.897125,372.882080 
      C153.901627,366.435333 154.674088,365.698486 161.092789,365.697510 
      C221.402512,365.688629 281.712219,365.689758 342.021942,365.703644 
      C348.291321,365.705078 349.119507,366.519836 349.137329,373.020294 
      C349.183472,389.846741 349.151794,406.673431 349.151489,424.000000 
    M266.500000,371.935242 
      C233.012268,371.918304 199.523666,372.013397 166.037766,371.757507 
      C161.285461,371.721191 160.155685,373.079803 160.184067,377.588318 
      C160.355164,404.744080 160.255554,431.901489 160.255920,459.058350 
      C160.256012,465.883759 160.271790,465.879944 167.186188,465.879852 
      C222.666138,465.878998 278.146088,465.879913 333.626038,465.879059 
      C335.292053,465.879059 336.962219,465.787964 338.623169,465.876099 
      C341.627289,466.035553 342.723450,464.666290 342.717712,461.696899 
      C342.662628,433.207336 342.649292,404.717407 342.746948,376.228058 
      C342.759125,372.668091 341.137756,371.385132 337.947296,371.480377 
      C333.955566,371.599548 329.967499,371.987061 325.977478,371.992981 
      C306.485077,372.021820 286.992493,371.962097 266.500000,371.935242 
    z"/>
    <path fill="#000000" opacity="1.000000" stroke="none" 
      d="
    M277.681274,399.088379 
      C275.907623,399.688843 274.508362,400.212097 273.109924,400.737518 
      C271.382355,401.386627 269.750366,401.419189 268.834442,399.523224 
      C267.905914,397.601166 269.041534,396.294128 270.578217,395.402039 
      C275.945435,392.286316 281.554962,391.848053 287.400482,393.982697 
      C288.901947,394.530975 290.344574,395.559296 292.131561,395.064972 
      C293.177124,392.953033 291.462891,392.356781 290.237457,391.729034 
      C284.990082,389.040924 279.578033,387.929169 273.903778,390.448822 
      C271.949097,391.316742 269.856171,391.946228 268.857330,389.369507 
      C267.927032,386.969574 269.730133,385.653290 271.613922,384.758759 
      C276.134674,382.612030 280.815796,381.964172 285.688660,383.526337 
      C287.714325,384.175690 289.771820,384.725555 291.672394,385.279175 
      C292.124207,384.788757 292.517181,384.564636 292.535522,384.313171 
      C293.306091,373.751862 294.817413,375.802765 302.576935,375.697021 
      C310.907318,375.583466 319.244049,375.823700 327.571014,375.621094 
      C332.020874,375.512787 334.108978,377.316559 334.105835,381.711670 
      C334.099976,389.876770 334.113464,398.041870 334.129852,406.206970 
      C334.136871,409.709045 332.484436,411.346344 328.909485,411.322205 
      C318.578430,411.252350 308.246521,411.286591 297.915039,411.313751 
      C295.452484,411.320221 293.238586,410.424561 293.193024,407.896759 
      C293.060913,400.572937 287.291016,400.460663 282.500336,399.130493 
      C281.114807,398.745728 279.542694,399.032990 277.681274,399.088379 
    M303.140015,393.811646 
      C301.781616,394.584473 299.069763,393.848907 299.687225,396.876740 
      C301.445068,398.373016 302.814331,396.879303 304.238403,396.288666 
      C305.762054,395.656647 307.172180,395.444366 308.238068,396.940918 
      C309.453552,398.647522 308.641296,400.046936 307.369537,401.333191 
      C305.691986,403.029968 303.408020,403.689911 300.066559,405.056732 
      C308.731049,405.056732 316.033295,404.997528 323.333771,405.084351 
      C326.492157,405.121918 327.839661,403.843658 327.740051,400.628540 
      C327.596191,395.984650 327.574219,391.326538 327.771362,386.686035 
      C327.917267,383.251678 326.553284,381.882538 323.149719,381.923950 
      C316.845032,382.000641 310.537354,381.890991 304.231812,381.798187 
      C302.470642,381.772247 300.405396,380.848969 299.537231,383.228424 
      C299.096985,384.434937 298.876190,386.021820 299.946777,387.001465 
      C301.583313,388.498932 302.995361,386.934265 304.430359,386.269958 
      C305.951294,385.565979 307.366119,385.539185 308.349518,387.100525 
      C309.317017,388.636627 308.717072,390.078461 307.544861,391.119537 
      C306.454926,392.087646 305.084381,392.739868 303.140015,393.811646 
    z"/>
    <path fill="#000000" opacity="1.000000" stroke="none" 
      d="
    M241.532257,444.368835 
      C244.779221,448.870422 248.994980,450.574280 253.935822,449.513947 
      C259.109528,448.403656 262.199890,444.983215 263.095764,439.603943 
      C263.451416,437.468231 264.182800,435.056702 267.184540,435.794403 
      C269.855560,436.450775 269.361328,438.857605 269.161194,440.758026 
      C268.292267,449.010925 260.084351,456.065308 251.509094,456.058075 
      C243.022446,456.050873 234.925125,449.404510 233.847626,441.359680 
      C233.556824,439.188385 232.810638,436.276703 236.078003,435.649719 
      C239.198639,435.050964 239.118591,437.914978 239.760239,439.881836 
      C240.220840,441.293610 240.806000,442.664734 241.532257,444.368835 
    z"/>
    <path fill="#000000" opacity="1.000000" stroke="none" 
      d="
    M221.102173,421.698883 
      C221.026474,421.141510 220.992844,420.972076 221.013672,420.809692 
      C221.447784,417.427429 222.014191,413.930237 225.971100,413.022064 
      C228.636673,412.410309 230.298996,414.319397 231.238419,416.645325 
      C232.793289,420.495087 232.671143,424.254425 229.550247,427.262939 
      C226.353256,430.344757 223.094849,428.275665 221.102173,421.698883 
    z"/>
    <path fill="#000000" opacity="1.000000" stroke="none" 
      d="
    M278.275635,413.500092 
      C282.404083,417.085266 282.425781,421.194305 280.698303,425.495392 
      C279.989136,427.261047 278.525330,428.406158 276.453979,428.449097 
      C274.393860,428.491791 272.972778,427.439453 272.073822,425.706451 
      C270.349640,422.382538 270.272827,418.967072 272.150360,415.714661 
      C273.392731,413.562531 275.207062,412.176392 278.275635,413.500092 
    z"/>
  </g>
</svg>